<?xml version="1.0" encoding="UTF-8" standalone="no"?>
<!DOCTYPE svg PUBLIC "-//W3C//DTD SVG 1.1//EN" "http://www.w3.org/Graphics/SVG/1.1/DTD/svg11.dtd">
<svg version="1.1" xmlns="http://www.w3.org/2000/svg" xmlns:xlink="http://www.w3.org/1999/xlink" preserveAspectRatio="xMidYMid meet" viewBox="0 0 300 300" width="300" height="300"><defs><path d="M227.56 48.63L227.56 39.25L236.94 48.63L227.56 48.63Z" id="d1CciO4DKE"></path><linearGradient id="gradientc1sW9t4sLN" gradientUnits="userSpaceOnUse" x1="232.25" y1="48.63" x2="232.25" y2="39.25"><stop style="stop-color: #00fcff;stop-opacity: 1" offset="0%"></stop><stop style="stop-color: #ff0000;stop-opacity: 1" offset="100%"></stop></linearGradient><path d="M87.25 292.06L87.25 282.69L77.88 292.06L87.25 292.06Z" id="c17Ph59S4f"></path><linearGradient id="gradientcalQeHbdQ" gradientUnits="userSpaceOnUse" x1="82.56" y1="292.06" x2="82.56" y2="282.69"><stop style="stop-color: #00fcff;stop-opacity: 1" offset="0%"></stop><stop style="stop-color: #ff0000;stop-opacity: 1" offset="100%"></stop></linearGradient><path d="M56.25 75L46.88 56.25L37.5 75L46.88 84.38L56.25 75Z" id="b1bZeOuqhW"></path><linearGradient id="gradientf107ex1keV" gradientUnits="userSpaceOnUse" x1="46.88" y1="56.25" x2="46.88" y2="84.38"><stop style="stop-color: #00fcff;stop-opacity: 1" offset="0%"></stop><stop style="stop-color: #ff0000;stop-opacity: 1" offset="100%"></stop></linearGradient><path d="M150 207.81L150 198.44L159.38 207.81L150 207.81Z" id="d6iwBxle5"></path><linearGradient id="gradientk5pMZLQTo" gradientUnits="userSpaceOnUse" x1="154.69" y1="207.81" x2="154.69" y2="198.44"><stop style="stop-color: #00fcff;stop-opacity: 1" offset="0%"></stop><stop style="stop-color: #ff0000;stop-opacity: 1" offset="100%"></stop></linearGradient><path d="M178.13 225L159.38 187.5L140.63 225L159.38 243.75L178.13 225Z" id="a1CMrsfGYY"></path><linearGradient id="gradienteu0f6kyRe" gradientUnits="userSpaceOnUse" x1="159.38" y1="187.5" x2="159.38" y2="243.75"><stop style="stop-color: #00fcff;stop-opacity: 1" offset="0%"></stop><stop style="stop-color: #ff0000;stop-opacity: 1" offset="100%"></stop></linearGradient><path d="M140.63 98.44L131.25 79.69L121.88 98.44L131.25 107.81L140.63 98.44Z" id="eONY1A4Q2"></path><linearGradient id="gradientl1QFmxM3QU" gradientUnits="userSpaceOnUse" x1="131.25" y1="79.69" x2="131.25" y2="107.81"><stop style="stop-color: #00fcff;stop-opacity: 1" offset="0%"></stop><stop style="stop-color: #ff0000;stop-opacity: 1" offset="100%"></stop></linearGradient><path d="M234.38 37.5L225 18.75L215.63 37.5L225 46.88L234.38 37.5Z" id="a73LEGiPmm"></path><linearGradient id="gradientabf2AiZze" gradientUnits="userSpaceOnUse" x1="225" y1="18.75" x2="225" y2="46.88"><stop style="stop-color: #00fcff;stop-opacity: 1" offset="0%"></stop><stop style="stop-color: #ff0000;stop-opacity: 1" offset="100%"></stop></linearGradient><path d="M243.75 206.25L234.38 187.5L225 206.25L234.38 215.63L243.75 206.25Z" id="aejSV5RR6"></path><linearGradient id="gradientfoRHwNIkn" gradientUnits="userSpaceOnUse" x1="234.38" y1="187.5" x2="234.38" y2="215.63"><stop style="stop-color: #00fcff;stop-opacity: 1" offset="0%"></stop><stop style="stop-color: #ff0000;stop-opacity: 1" offset="100%"></stop></linearGradient><path d="M290.63 253.13L300 234.38L300 262.5L290.63 253.13Z" id="c1LC1YT15g"></path><linearGradient id="gradientb3nKEKDw6X" gradientUnits="userSpaceOnUse" x1="295.31" y1="234.38" x2="295.31" y2="262.5"><stop style="stop-color: #00fcff;stop-opacity: 1" offset="0%"></stop><stop style="stop-color: #ff0000;stop-opacity: 1" offset="100%"></stop></linearGradient><path d="M0 262.5L0 234.38L9.38 253.13L0 262.5Z" id="cBvYEgxZR"></path><linearGradient id="gradientadL72NIia" gradientUnits="userSpaceOnUse" x1="4.69" y1="234.38" x2="4.69" y2="262.5"><stop style="stop-color: #00fcff;stop-opacity: 1" offset="0%"></stop><stop style="stop-color: #ff0000;stop-opacity: 1" offset="100%"></stop></linearGradient><path d="M148.81 111L148.81 101.63L158.19 111L148.81 111Z" id="a45OQcUtrp"></path><linearGradient id="gradienta6ejc8VS5" gradientUnits="userSpaceOnUse" x1="153.5" y1="111" x2="153.5" y2="101.63"><stop style="stop-color: #00fcff;stop-opacity: 1" offset="0%"></stop><stop style="stop-color: #ff0000;stop-opacity: 1" offset="100%"></stop></linearGradient><path d="M28.13 112.5L28.13 121.88L18.75 112.5L28.13 112.5Z" id="e5mguMjUbq"></path><linearGradient id="gradienta1Ci8EG8ef" gradientUnits="userSpaceOnUse" x1="23.44" y1="112.5" x2="23.44" y2="121.88"><stop style="stop-color: #00fcff;stop-opacity: 1" offset="0%"></stop><stop style="stop-color: #ff0000;stop-opacity: 1" offset="100%"></stop></linearGradient><path d="M153 107.81L153 117.19L143.63 107.81L153 107.81Z" id="f1za52XOlE"></path><linearGradient id="gradientfeaMiaNpr" gradientUnits="userSpaceOnUse" x1="148.31" y1="107.81" x2="148.31" y2="117.19"><stop style="stop-color: #00fcff;stop-opacity: 1" offset="0%"></stop><stop style="stop-color: #ff0000;stop-opacity: 1" offset="100%"></stop></linearGradient><path d="M68.38 18.75L68.38 28.13L59 18.75L68.38 18.75Z" id="dutlbz0HB"></path><linearGradient id="gradienta5AiI5fpIj" gradientUnits="userSpaceOnUse" x1="63.69" y1="18.75" x2="63.69" y2="28.13"><stop style="stop-color: #00fcff;stop-opacity: 1" offset="0%"></stop><stop style="stop-color: #ff0000;stop-opacity: 1" offset="100%"></stop></linearGradient><path d="M172.25 46.88L172.25 56.25L162.88 46.88L172.25 46.88Z" id="gNCVmzO5Q"></path><linearGradient id="gradientc2WHwXigWv" gradientUnits="userSpaceOnUse" x1="167.56" y1="46.88" x2="167.56" y2="56.25"><stop style="stop-color: #00fcff;stop-opacity: 1" offset="0%"></stop><stop style="stop-color: #ff0000;stop-opacity: 1" offset="100%"></stop></linearGradient><path d="M295.31 28.13L300 28.13L300 32.81L295.31 28.13Z" id="d36T5xSTP"></path><linearGradient id="gradienta2blUhUkGO" gradientUnits="userSpaceOnUse" x1="297.66" y1="28.13" x2="297.66" y2="32.81"><stop style="stop-color: #00fcff;stop-opacity: 1" offset="0%"></stop><stop style="stop-color: #ff0000;stop-opacity: 1" offset="100%"></stop></linearGradient><path d="M0 32.81L0 28.13L4.69 28.13L4.69 37.5L0 32.81Z" id="a5IJAhiCVM"></path><linearGradient id="gradienta9o2Ff6ZE" gradientUnits="userSpaceOnUse" x1="2.34" y1="28.13" x2="2.34" y2="37.5"><stop style="stop-color: #00fcff;stop-opacity: 1" offset="0%"></stop><stop style="stop-color: #ff0000;stop-opacity: 1" offset="100%"></stop></linearGradient><path d="M271.88 75L271.88 84.38L262.5 75L271.88 75Z" id="f2fUjPYiA6"></path><linearGradient id="gradientcWseZPUmG" gradientUnits="userSpaceOnUse" x1="267.19" y1="75" x2="267.19" y2="84.38"><stop style="stop-color: #00fcff;stop-opacity: 1" offset="0%"></stop><stop style="stop-color: #ff0000;stop-opacity: 1" offset="100%"></stop></linearGradient><path d="M225 141.88L225 151.25L215.63 141.88L225 141.88Z" id="fSRFsKnw"></path><linearGradient id="gradienta6192iKRbv" gradientUnits="userSpaceOnUse" x1="220.31" y1="141.88" x2="220.31" y2="151.25"><stop style="stop-color: #00fcff;stop-opacity: 1" offset="0%"></stop><stop style="stop-color: #ff0000;stop-opacity: 1" offset="100%"></stop></linearGradient><path d="M230.88 145.31L230.88 135.94L221.5 145.31L230.88 145.31Z" id="avJDPhJEw"></path><linearGradient id="gradientasHSxObcw" gradientUnits="userSpaceOnUse" x1="226.19" y1="145.31" x2="226.19" y2="135.94"><stop style="stop-color: #00fcff;stop-opacity: 1" offset="0%"></stop><stop style="stop-color: #ff0000;stop-opacity: 1" offset="100%"></stop></linearGradient><path d="M148.75 234.38L148.75 225L139.38 234.38L148.75 234.38Z" id="b5frluLhf"></path><linearGradient id="gradientnACZjT1i" gradientUnits="userSpaceOnUse" x1="144.06" y1="234.38" x2="144.06" y2="225"><stop style="stop-color: #00fcff;stop-opacity: 1" offset="0%"></stop><stop style="stop-color: #ff0000;stop-opacity: 1" offset="100%"></stop></linearGradient><path d="M42.19 239.06L42.19 229.69L32.81 239.06L42.19 239.06Z" id="c1cYMfe6U9"></path><linearGradient id="gradientaNeq139ht" gradientUnits="userSpaceOnUse" x1="37.5" y1="239.06" x2="37.5" y2="229.69"><stop style="stop-color: #00fcff;stop-opacity: 1" offset="0%"></stop><stop style="stop-color: #ff0000;stop-opacity: 1" offset="100%"></stop></linearGradient><path d="M38.69 245.94L38.69 236.56L48.06 245.94L38.69 245.94Z" id="bdlXcQKdL"></path><linearGradient id="gradientb1TxvffNfl" gradientUnits="userSpaceOnUse" x1="43.38" y1="245.94" x2="43.38" y2="236.56"><stop style="stop-color: #00fcff;stop-opacity: 1" offset="0%"></stop><stop style="stop-color: #ff0000;stop-opacity: 1" offset="100%"></stop></linearGradient><path d="M237.88 215.63L237.88 206.25L247.25 215.63L237.88 215.63Z" id="lgwzzH8Yn"></path><linearGradient id="gradientbwAI1xvmT" gradientUnits="userSpaceOnUse" x1="242.56" y1="215.63" x2="242.56" y2="206.25"><stop style="stop-color: #00fcff;stop-opacity: 1" offset="0%"></stop><stop style="stop-color: #ff0000;stop-opacity: 1" offset="100%"></stop></linearGradient><path d="M201.56 281.25L201.56 271.88L210.94 281.25L201.56 281.25Z" id="e1WlEo8K4"></path><linearGradient id="gradientag3A7m7QS" gradientUnits="userSpaceOnUse" x1="206.25" y1="281.25" x2="206.25" y2="271.88"><stop style="stop-color: #00fcff;stop-opacity: 1" offset="0%"></stop><stop style="stop-color: #ff0000;stop-opacity: 1" offset="100%"></stop></linearGradient><path d="M119.19 93.75L119.19 84.38L128.56 93.75L119.19 93.75Z" id="aQwjiIPvh"></path><linearGradient id="gradientkqNiNanz3" gradientUnits="userSpaceOnUse" x1="123.88" y1="93.75" x2="123.88" y2="84.38"><stop style="stop-color: #00fcff;stop-opacity: 1" offset="0%"></stop><stop style="stop-color: #ff0000;stop-opacity: 1" offset="100%"></stop></linearGradient><path d="M192.19 9.38L192.19 0L201.56 9.38L192.19 9.38Z" id="a1uWzZ5oSj"></path><linearGradient id="gradientceMEMMdN" gradientUnits="userSpaceOnUse" x1="196.88" y1="9.38" x2="196.88" y2="0"><stop style="stop-color: #00fcff;stop-opacity: 1" offset="0%"></stop><stop style="stop-color: #ff0000;stop-opacity: 1" offset="100%"></stop></linearGradient><path d="M178.13 45.13L168.75 49.86L178.13 54.5L178.13 45.13Z" id="foVzQVDOt"></path><linearGradient id="gradientay6OvPycp" gradientUnits="userSpaceOnUse" x1="173.44" y1="45.13" x2="173.44" y2="54.5"><stop style="stop-color: #00fcff;stop-opacity: 1" offset="0%"></stop><stop style="stop-color: #ff0000;stop-opacity: 1" offset="100%"></stop></linearGradient><path d="M248.44 84.38L239.06 89.11L248.44 93.75L248.44 84.38Z" id="b62nPC3Y73"></path><linearGradient id="gradientbaioxKjGtv" gradientUnits="userSpaceOnUse" x1="243.75" y1="84.38" x2="243.75" y2="93.75"><stop style="stop-color: #00fcff;stop-opacity: 1" offset="0%"></stop><stop style="stop-color: #ff0000;stop-opacity: 1" offset="100%"></stop></linearGradient><path d="M65.63 220.31L56.25 225.05L65.63 229.69L65.63 220.31Z" id="eG3AMb6vg"></path><linearGradient id="gradientd8gg4ylv6" gradientUnits="userSpaceOnUse" x1="60.94" y1="220.31" x2="60.94" y2="229.69"><stop style="stop-color: #00fcff;stop-opacity: 1" offset="0%"></stop><stop style="stop-color: #ff0000;stop-opacity: 1" offset="100%"></stop></linearGradient><path d="M295.31 126.61L300 124.24L300 128.93L295.31 126.61Z" id="d3S6le3Tqo"></path><linearGradient id="gradienti3GMDYZQlh" gradientUnits="userSpaceOnUse" x1="297.66" y1="124.24" x2="297.66" y2="128.93"><stop style="stop-color: #00fcff;stop-opacity: 1" offset="0%"></stop><stop style="stop-color: #ff0000;stop-opacity: 1" offset="100%"></stop></linearGradient><path d="M0 128.93L0 124.24L4.69 121.88L4.69 131.25L0 128.93Z" id="b31ES4xU0G"></path><linearGradient id="gradienta8lzH4MN5V" gradientUnits="userSpaceOnUse" x1="2.34" y1="121.88" x2="2.34" y2="131.25"><stop style="stop-color: #00fcff;stop-opacity: 1" offset="0%"></stop><stop style="stop-color: #ff0000;stop-opacity: 1" offset="100%"></stop></linearGradient><path d="M116.15 269.49L116.15 269.49L115.64 269.49L116.15 269.49Z" id="b1rTGG47g8"></path><linearGradient id="gradientcaAcehxJ7" gradientUnits="userSpaceOnUse" x1="115.89" y1="269.49" x2="115.89" y2="269.49"><stop style="stop-color: #00fcff;stop-opacity: 1" offset="0%"></stop><stop style="stop-color: #ff0000;stop-opacity: 1" offset="100%"></stop></linearGradient><path d="M56.25 93.75L37.5 56.25L18.75 93.75L37.5 112.5L56.25 93.75Z" id="a1GyFht1vW"></path><linearGradient id="gradienth2HMtLuHYC" gradientUnits="userSpaceOnUse" x1="37.5" y1="56.25" x2="37.5" y2="112.5"><stop style="stop-color: #00c6ff;stop-opacity: 1" offset="0%"></stop><stop style="stop-color: #ff0000;stop-opacity: 1" offset="100%"></stop></linearGradient><linearGradient id="gradienta1ODjLYHZz" gradientUnits="userSpaceOnUse" x1="37.5" y1="56.25" x2="37.5" y2="112.5"><stop style="stop-color: #00fcff;stop-opacity: 1" offset="0%"></stop><stop style="stop-color: #ff0000;stop-opacity: 1" offset="100%"></stop></linearGradient><path d="M21.94 78.13L21.94 68.75L31.31 78.13L21.94 78.13Z" id="f1wrvbA40"></path><linearGradient id="gradientf2hYXEEkS" gradientUnits="userSpaceOnUse" x1="26.63" y1="78.13" x2="26.63" y2="68.75"><stop style="stop-color: #00fcff;stop-opacity: 1" offset="0%"></stop><stop style="stop-color: #ff0000;stop-opacity: 1" offset="100%"></stop></linearGradient><path d="M75 0L65.63 -18.75L56.25 0L65.63 9.38L75 0Z" id="a6ejdC6X9"></path><linearGradient id="gradientdJ2UR7tS2" gradientUnits="userSpaceOnUse" x1="65.63" y1="-18.75" x2="65.63" y2="9.38"><stop style="stop-color: #00fcff;stop-opacity: 1" offset="0%"></stop><stop style="stop-color: #ff0000;stop-opacity: 1" offset="100%"></stop></linearGradient><path d="M75 300L65.63 281.25L56.25 300L65.63 309.38L75 300Z" id="a73KoYYrZb"></path><linearGradient id="gradientb90lAi8mon" gradientUnits="userSpaceOnUse" x1="65.63" y1="281.25" x2="65.63" y2="309.38"><stop style="stop-color: #00fcff;stop-opacity: 1" offset="0%"></stop><stop style="stop-color: #ff0000;stop-opacity: 1" offset="100%"></stop></linearGradient><path d="M178.13 304.69L178.13 295.31L168.75 304.69L178.13 304.69Z" id="b9KLcnt4D"></path><linearGradient id="gradienta14U7W61wB" gradientUnits="userSpaceOnUse" x1="173.44" y1="304.69" x2="173.44" y2="295.31"><stop style="stop-color: #00fcff;stop-opacity: 1" offset="0%"></stop><stop style="stop-color: #ff0000;stop-opacity: 1" offset="100%"></stop></linearGradient><path d="M178.13 4.69L178.13 -4.69L168.75 4.69L178.13 4.69Z" id="bjLEOcP12"></path><linearGradient id="gradienta3JTVU6Kv" gradientUnits="userSpaceOnUse" x1="173.44" y1="4.69" x2="173.44" y2="-4.69"><stop style="stop-color: #00fcff;stop-opacity: 1" offset="0%"></stop><stop style="stop-color: #ff0000;stop-opacity: 1" offset="100%"></stop></linearGradient></defs><g><g><g><use xlink:href="#d1CciO4DKE" opacity="1" fill="url(#gradientc1sW9t4sLN)"></use></g><g><use xlink:href="#c17Ph59S4f" opacity="1" fill="url(#gradientcalQeHbdQ)"></use></g><g><use xlink:href="#b1bZeOuqhW" opacity="1" fill="url(#gradientf107ex1keV)"></use></g><g><use xlink:href="#d6iwBxle5" opacity="1" fill="url(#gradientk5pMZLQTo)"></use></g><g><use xlink:href="#a1CMrsfGYY" opacity="1" fill="url(#gradienteu0f6kyRe)"></use></g><g><use xlink:href="#eONY1A4Q2" opacity="1" fill="url(#gradientl1QFmxM3QU)"></use></g><g><use xlink:href="#a73LEGiPmm" opacity="1" fill="url(#gradientabf2AiZze)"></use></g><g><use xlink:href="#aejSV5RR6" opacity="1" fill="url(#gradientfoRHwNIkn)"></use></g><g><use xlink:href="#c1LC1YT15g" opacity="1" fill="url(#gradientb3nKEKDw6X)"></use></g><g><use xlink:href="#cBvYEgxZR" opacity="1" fill="url(#gradientadL72NIia)"></use></g><g><use xlink:href="#a45OQcUtrp" opacity="1" fill="url(#gradienta6ejc8VS5)"></use></g><g><use xlink:href="#e5mguMjUbq" opacity="1" fill="url(#gradienta1Ci8EG8ef)"></use></g><g><use xlink:href="#f1za52XOlE" opacity="1" fill="url(#gradientfeaMiaNpr)"></use></g><g><use xlink:href="#dutlbz0HB" opacity="1" fill="url(#gradienta5AiI5fpIj)"></use></g><g><use xlink:href="#gNCVmzO5Q" opacity="1" fill="url(#gradientc2WHwXigWv)"></use></g><g><use xlink:href="#d36T5xSTP" opacity="1" fill="url(#gradienta2blUhUkGO)"></use></g><g><use xlink:href="#a5IJAhiCVM" opacity="1" fill="url(#gradienta9o2Ff6ZE)"></use></g><g><use xlink:href="#f2fUjPYiA6" opacity="1" fill="url(#gradientcWseZPUmG)"></use></g><g><use xlink:href="#fSRFsKnw" opacity="1" fill="url(#gradienta6192iKRbv)"></use></g><g><use xlink:href="#avJDPhJEw" opacity="1" fill="url(#gradientasHSxObcw)"></use></g><g><use xlink:href="#b5frluLhf" opacity="1" fill="url(#gradientnACZjT1i)"></use></g><g><use xlink:href="#c1cYMfe6U9" opacity="1" fill="url(#gradientaNeq139ht)"></use></g><g><use xlink:href="#bdlXcQKdL" opacity="1" fill="url(#gradientb1TxvffNfl)"></use></g><g><use xlink:href="#lgwzzH8Yn" opacity="1" fill="url(#gradientbwAI1xvmT)"></use></g><g><use xlink:href="#e1WlEo8K4" opacity="1" fill="url(#gradientag3A7m7QS)"></use></g><g><use xlink:href="#aQwjiIPvh" opacity="1" fill="url(#gradientkqNiNanz3)"></use></g><g><use xlink:href="#a1uWzZ5oSj" opacity="1" fill="url(#gradientceMEMMdN)"></use></g><g><use xlink:href="#foVzQVDOt" opacity="1" fill="url(#gradientay6OvPycp)"></use></g><g><use xlink:href="#b62nPC3Y73" opacity="1" fill="url(#gradientbaioxKjGtv)"></use></g><g><use xlink:href="#eG3AMb6vg" opacity="1" fill="url(#gradientd8gg4ylv6)"></use></g><g><use xlink:href="#d3S6le3Tqo" opacity="1" fill="url(#gradienti3GMDYZQlh)"></use></g><g><use xlink:href="#b31ES4xU0G" opacity="1" fill="url(#gradienta8lzH4MN5V)"></use></g><g><use xlink:href="#b1rTGG47g8" opacity="1" fill="url(#gradientcaAcehxJ7)"></use></g><g><use xlink:href="#a1GyFht1vW" opacity="1" fill="url(#gradienth2HMtLuHYC)"></use><use xlink:href="#a1GyFht1vW" opacity="1" fill="url(#gradienta1ODjLYHZz)"></use></g><g><use xlink:href="#f1wrvbA40" opacity="1" fill="url(#gradientf2hYXEEkS)"></use></g><g><use xlink:href="#a6ejdC6X9" opacity="1" fill="url(#gradientdJ2UR7tS2)"></use></g><g><use xlink:href="#a73KoYYrZb" opacity="1" fill="url(#gradientb90lAi8mon)"></use></g><g><use xlink:href="#b9KLcnt4D" opacity="1" fill="url(#gradienta14U7W61wB)"></use></g><g><use xlink:href="#bjLEOcP12" opacity="1" fill="url(#gradienta3JTVU6Kv)"></use></g></g></g></svg>