<?xml version="1.0" encoding="UTF-8" standalone="no"?>
<!DOCTYPE svg PUBLIC "-//W3C//DTD SVG 1.1//EN" "http://www.w3.org/Graphics/SVG/1.1/DTD/svg11.dtd">
<svg version="1.1" xmlns="http://www.w3.org/2000/svg" xmlns:xlink="http://www.w3.org/1999/xlink" preserveAspectRatio="xMidYMid meet" viewBox="0 0 300 300" width="300" height="300"><defs><path d="M227.56 48.63L227.56 39.25L236.94 48.63L227.56 48.63Z" id="bcWfetqhF"></path><linearGradient id="gradientaiAUo4SHb" gradientUnits="userSpaceOnUse" x1="232.25" y1="48.63" x2="232.25" y2="39.25"><stop style="stop-color: #00fcff;stop-opacity: 1" offset="0%"></stop><stop style="stop-color: #ff0000;stop-opacity: 1" offset="100%"></stop></linearGradient><path d="M87.25 292.06L87.25 282.69L77.88 292.06L87.25 292.06Z" id="a4hlVwA3IJ"></path><linearGradient id="gradientadD1sYMdM" gradientUnits="userSpaceOnUse" x1="82.56" y1="292.06" x2="82.56" y2="282.69"><stop style="stop-color: #00fcff;stop-opacity: 1" offset="0%"></stop><stop style="stop-color: #ff0000;stop-opacity: 1" offset="100%"></stop></linearGradient><path d="M65.63 300L75 281.25L84.38 300L65.63 300Z" id="a2x4THoVsk"></path><linearGradient id="gradientd8a22UfQcl" gradientUnits="userSpaceOnUse" x1="75" y1="281.25" x2="75" y2="300"><stop style="stop-color: #00fcff;stop-opacity: 1" offset="0%"></stop><stop style="stop-color: #ff0000;stop-opacity: 1" offset="100%"></stop></linearGradient><path d="M56.25 75L46.88 56.25L37.5 75L46.88 84.38L56.25 75Z" id="a1SmKu7jeC"></path><linearGradient id="gradienta1xxNd5bnl" gradientUnits="userSpaceOnUse" x1="46.88" y1="56.25" x2="46.88" y2="84.38"><stop style="stop-color: #00fcff;stop-opacity: 1" offset="0%"></stop><stop style="stop-color: #ff0000;stop-opacity: 1" offset="100%"></stop></linearGradient><path d="M65.63 0L84.38 0L75 9.38L65.63 0Z" id="fyypVEtYm"></path><linearGradient id="gradiental3b5FzAy" gradientUnits="userSpaceOnUse" x1="75" y1="0" x2="75" y2="9.38"><stop style="stop-color: #00fcff;stop-opacity: 1" offset="0%"></stop><stop style="stop-color: #ff0000;stop-opacity: 1" offset="100%"></stop></linearGradient><path d="M150 207.81L150 198.44L159.38 207.81L150 207.81Z" id="b1OC8rzkDy"></path><linearGradient id="gradientgsxVBWbxk" gradientUnits="userSpaceOnUse" x1="154.69" y1="207.81" x2="154.69" y2="198.44"><stop style="stop-color: #00fcff;stop-opacity: 1" offset="0%"></stop><stop style="stop-color: #ff0000;stop-opacity: 1" offset="100%"></stop></linearGradient><path d="M178.13 225L159.38 187.5L140.63 225L159.38 243.75L178.13 225Z" id="f67ekvhMf"></path><linearGradient id="gradienta6oFBU6E" gradientUnits="userSpaceOnUse" x1="159.38" y1="187.5" x2="159.38" y2="243.75"><stop style="stop-color: #00fcff;stop-opacity: 1" offset="0%"></stop><stop style="stop-color: #ff0000;stop-opacity: 1" offset="100%"></stop></linearGradient><path d="M140.63 98.44L131.25 79.69L121.88 98.44L131.25 107.81L140.63 98.44Z" id="dBcFzjX64"></path><linearGradient id="gradientb2TZocTQRm" gradientUnits="userSpaceOnUse" x1="131.25" y1="79.69" x2="131.25" y2="107.81"><stop style="stop-color: #00fcff;stop-opacity: 1" offset="0%"></stop><stop style="stop-color: #ff0000;stop-opacity: 1" offset="100%"></stop></linearGradient><path d="M234.38 37.5L225 18.75L215.63 37.5L225 46.88L234.38 37.5Z" id="c1ikPmICda"></path><linearGradient id="gradienteRPoqrsAl" gradientUnits="userSpaceOnUse" x1="225" y1="18.75" x2="225" y2="46.88"><stop style="stop-color: #00fcff;stop-opacity: 1" offset="0%"></stop><stop style="stop-color: #ff0000;stop-opacity: 1" offset="100%"></stop></linearGradient><path d="M243.75 206.25L234.38 187.5L225 206.25L234.38 215.63L243.75 206.25Z" id="n58yw9dSEU"></path><linearGradient id="gradientb3yTGVO8D" gradientUnits="userSpaceOnUse" x1="234.38" y1="187.5" x2="234.38" y2="215.63"><stop style="stop-color: #00fcff;stop-opacity: 1" offset="0%"></stop><stop style="stop-color: #ff0000;stop-opacity: 1" offset="100%"></stop></linearGradient><path d="M290.63 253.13L300 234.38L300 262.5L290.63 253.13Z" id="b4wtP8AILl"></path><linearGradient id="gradientb3cZPvUqBk" gradientUnits="userSpaceOnUse" x1="295.31" y1="234.38" x2="295.31" y2="262.5"><stop style="stop-color: #00fcff;stop-opacity: 1" offset="0%"></stop><stop style="stop-color: #ff0000;stop-opacity: 1" offset="100%"></stop></linearGradient><path d="M0 262.5L0 234.38L9.38 253.13L0 262.5Z" id="awDbPEZjX"></path><linearGradient id="gradientd1t83OR498" gradientUnits="userSpaceOnUse" x1="4.69" y1="234.38" x2="4.69" y2="262.5"><stop style="stop-color: #00fcff;stop-opacity: 1" offset="0%"></stop><stop style="stop-color: #ff0000;stop-opacity: 1" offset="100%"></stop></linearGradient><path d="M148.81 111L148.81 101.63L158.19 111L148.81 111Z" id="aTTNSj7uq"></path><linearGradient id="gradienta3fxmqiiV" gradientUnits="userSpaceOnUse" x1="153.5" y1="111" x2="153.5" y2="101.63"><stop style="stop-color: #00fcff;stop-opacity: 1" offset="0%"></stop><stop style="stop-color: #ff0000;stop-opacity: 1" offset="100%"></stop></linearGradient><path d="M28.13 112.5L28.13 121.88L18.75 112.5L28.13 112.5Z" id="gbjJBEggT"></path><linearGradient id="gradientb5CuNAld5B" gradientUnits="userSpaceOnUse" x1="23.44" y1="112.5" x2="23.44" y2="121.88"><stop style="stop-color: #00fcff;stop-opacity: 1" offset="0%"></stop><stop style="stop-color: #ff0000;stop-opacity: 1" offset="100%"></stop></linearGradient><path d="M153 107.81L153 117.19L143.63 107.81L153 107.81Z" id="b59n1lgpOC"></path><linearGradient id="gradienta3SfW9pY6e" gradientUnits="userSpaceOnUse" x1="148.31" y1="107.81" x2="148.31" y2="117.19"><stop style="stop-color: #00fcff;stop-opacity: 1" offset="0%"></stop><stop style="stop-color: #ff0000;stop-opacity: 1" offset="100%"></stop></linearGradient><path d="M68.38 18.75L68.38 28.13L59 18.75L68.38 18.75Z" id="a81l8HylH"></path><linearGradient id="gradientf2o3RH65lg" gradientUnits="userSpaceOnUse" x1="63.69" y1="18.75" x2="63.69" y2="28.13"><stop style="stop-color: #00fcff;stop-opacity: 1" offset="0%"></stop><stop style="stop-color: #ff0000;stop-opacity: 1" offset="100%"></stop></linearGradient><path d="M172.25 46.88L172.25 56.25L162.88 46.88L172.25 46.88Z" id="cjLieGkfz"></path><linearGradient id="gradientf7NXmDTzT" gradientUnits="userSpaceOnUse" x1="167.56" y1="46.88" x2="167.56" y2="56.25"><stop style="stop-color: #00fcff;stop-opacity: 1" offset="0%"></stop><stop style="stop-color: #ff0000;stop-opacity: 1" offset="100%"></stop></linearGradient><path d="M295.31 28.13L300 28.13L300 32.81L295.31 28.13Z" id="aD1RHdYUn"></path><linearGradient id="gradientaMVdU31wi" gradientUnits="userSpaceOnUse" x1="297.66" y1="28.13" x2="297.66" y2="32.81"><stop style="stop-color: #00fcff;stop-opacity: 1" offset="0%"></stop><stop style="stop-color: #ff0000;stop-opacity: 1" offset="100%"></stop></linearGradient><path d="M0 32.81L0 28.13L4.69 28.13L4.69 37.5L0 32.81Z" id="awQGQnBbo"></path><linearGradient id="gradienta2yVf8jr07" gradientUnits="userSpaceOnUse" x1="2.34" y1="28.13" x2="2.34" y2="37.5"><stop style="stop-color: #00fcff;stop-opacity: 1" offset="0%"></stop><stop style="stop-color: #ff0000;stop-opacity: 1" offset="100%"></stop></linearGradient><path d="M271.88 75L271.88 84.38L262.5 75L271.88 75Z" id="cyiAQX7x7"></path><linearGradient id="gradientaGsdTD7ol" gradientUnits="userSpaceOnUse" x1="267.19" y1="75" x2="267.19" y2="84.38"><stop style="stop-color: #00fcff;stop-opacity: 1" offset="0%"></stop><stop style="stop-color: #ff0000;stop-opacity: 1" offset="100%"></stop></linearGradient><path d="M225 141.88L225 151.25L215.63 141.88L225 141.88Z" id="aWX6KVtd3"></path><linearGradient id="gradientbF5w2eXK" gradientUnits="userSpaceOnUse" x1="220.31" y1="141.88" x2="220.31" y2="151.25"><stop style="stop-color: #00fcff;stop-opacity: 1" offset="0%"></stop><stop style="stop-color: #ff0000;stop-opacity: 1" offset="100%"></stop></linearGradient><path d="M230.88 145.31L230.88 135.94L221.5 145.31L230.88 145.31Z" id="gAj6nN8nK"></path><linearGradient id="gradientb3r2euDObz" gradientUnits="userSpaceOnUse" x1="226.19" y1="145.31" x2="226.19" y2="135.94"><stop style="stop-color: #00fcff;stop-opacity: 1" offset="0%"></stop><stop style="stop-color: #ff0000;stop-opacity: 1" offset="100%"></stop></linearGradient><path d="M148.75 234.38L148.75 225L139.38 234.38L148.75 234.38Z" id="b56d6Rm4Wt"></path><linearGradient id="gradientdqTcxE83y" gradientUnits="userSpaceOnUse" x1="144.06" y1="234.38" x2="144.06" y2="225"><stop style="stop-color: #00fcff;stop-opacity: 1" offset="0%"></stop><stop style="stop-color: #ff0000;stop-opacity: 1" offset="100%"></stop></linearGradient><path d="M192.19 300L196.88 295.31L196.88 300L192.19 300Z" id="a2uQKtEqhR"></path><linearGradient id="gradientk1xgprWkNM" gradientUnits="userSpaceOnUse" x1="194.53" y1="300" x2="194.53" y2="295.31"><stop style="stop-color: #00fcff;stop-opacity: 1" offset="0%"></stop><stop style="stop-color: #ff0000;stop-opacity: 1" offset="100%"></stop></linearGradient><path d="M187.5 4.69L192.19 0L196.88 0L196.88 4.69L187.5 4.69Z" id="b4bKyI1tR"></path><linearGradient id="gradientfkXIoLRGD" gradientUnits="userSpaceOnUse" x1="192.19" y1="4.69" x2="192.19" y2="0"><stop style="stop-color: #00fcff;stop-opacity: 1" offset="0%"></stop><stop style="stop-color: #ff0000;stop-opacity: 1" offset="100%"></stop></linearGradient><path d="M42.19 239.06L42.19 229.69L32.81 239.06L42.19 239.06Z" id="euSReX6kr"></path><linearGradient id="gradientl1pxBBNup" gradientUnits="userSpaceOnUse" x1="37.5" y1="239.06" x2="37.5" y2="229.69"><stop style="stop-color: #00fcff;stop-opacity: 1" offset="0%"></stop><stop style="stop-color: #ff0000;stop-opacity: 1" offset="100%"></stop></linearGradient><path d="M38.69 245.94L38.69 236.56L48.06 245.94L38.69 245.94Z" id="b1EdLoqmz"></path><linearGradient id="gradientf2JEalBvGb" gradientUnits="userSpaceOnUse" x1="43.38" y1="245.94" x2="43.38" y2="236.56"><stop style="stop-color: #00fcff;stop-opacity: 1" offset="0%"></stop><stop style="stop-color: #ff0000;stop-opacity: 1" offset="100%"></stop></linearGradient><path d="M237.88 215.63L237.88 206.25L247.25 215.63L237.88 215.63Z" id="bajxkCEOJ"></path><linearGradient id="gradientgqNTJbV17" gradientUnits="userSpaceOnUse" x1="242.56" y1="215.63" x2="242.56" y2="206.25"><stop style="stop-color: #00fcff;stop-opacity: 1" offset="0%"></stop><stop style="stop-color: #ff0000;stop-opacity: 1" offset="100%"></stop></linearGradient><path d="M201.56 281.25L201.56 271.88L210.94 281.25L201.56 281.25Z" id="d1unfIYt8C"></path><linearGradient id="gradienta1I45TFQe4" gradientUnits="userSpaceOnUse" x1="206.25" y1="281.25" x2="206.25" y2="271.88"><stop style="stop-color: #00fcff;stop-opacity: 1" offset="0%"></stop><stop style="stop-color: #ff0000;stop-opacity: 1" offset="100%"></stop></linearGradient><path d="M119.19 93.75L119.19 84.38L128.56 93.75L119.19 93.75Z" id="cbpRSiEwm"></path><linearGradient id="gradientc1YnQBJbJA" gradientUnits="userSpaceOnUse" x1="123.88" y1="93.75" x2="123.88" y2="84.38"><stop style="stop-color: #00fcff;stop-opacity: 1" offset="0%"></stop><stop style="stop-color: #ff0000;stop-opacity: 1" offset="100%"></stop></linearGradient><path d="M192.19 9.38L192.19 0L201.56 9.38L192.19 9.38Z" id="a5ioEMe7A"></path><linearGradient id="gradientb2lza6hl5A" gradientUnits="userSpaceOnUse" x1="196.88" y1="9.38" x2="196.88" y2="0"><stop style="stop-color: #00fcff;stop-opacity: 1" offset="0%"></stop><stop style="stop-color: #ff0000;stop-opacity: 1" offset="100%"></stop></linearGradient><path d="M178.13 45.13L168.75 49.86L178.13 54.5L178.13 45.13Z" id="a4AHgSJzCX"></path><linearGradient id="gradienta1TwsFaH3n" gradientUnits="userSpaceOnUse" x1="173.44" y1="45.13" x2="173.44" y2="54.5"><stop style="stop-color: #00fcff;stop-opacity: 1" offset="0%"></stop><stop style="stop-color: #ff0000;stop-opacity: 1" offset="100%"></stop></linearGradient><path d="M248.44 84.38L239.06 89.11L248.44 93.75L248.44 84.38Z" id="aB1XAZdC2"></path><linearGradient id="gradientbYX2gB3by" gradientUnits="userSpaceOnUse" x1="243.75" y1="84.38" x2="243.75" y2="93.75"><stop style="stop-color: #00fcff;stop-opacity: 1" offset="0%"></stop><stop style="stop-color: #ff0000;stop-opacity: 1" offset="100%"></stop></linearGradient><path d="M65.63 220.31L56.25 225.05L65.63 229.69L65.63 220.31Z" id="aOd7WGvkm"></path><linearGradient id="gradienta5lAXHzgt" gradientUnits="userSpaceOnUse" x1="60.94" y1="220.31" x2="60.94" y2="229.69"><stop style="stop-color: #00fcff;stop-opacity: 1" offset="0%"></stop><stop style="stop-color: #ff0000;stop-opacity: 1" offset="100%"></stop></linearGradient><path d="M295.31 126.61L300 124.24L300 128.93L295.31 126.61Z" id="e1OVVgbSuH"></path><linearGradient id="gradienta1uezP0jcQ" gradientUnits="userSpaceOnUse" x1="297.66" y1="124.24" x2="297.66" y2="128.93"><stop style="stop-color: #00fcff;stop-opacity: 1" offset="0%"></stop><stop style="stop-color: #ff0000;stop-opacity: 1" offset="100%"></stop></linearGradient><path d="M0 128.93L0 124.24L4.69 121.88L4.69 131.25L0 128.93Z" id="j2dl62Omix"></path><linearGradient id="gradienta37tdJhzEG" gradientUnits="userSpaceOnUse" x1="2.34" y1="121.88" x2="2.34" y2="131.25"><stop style="stop-color: #00fcff;stop-opacity: 1" offset="0%"></stop><stop style="stop-color: #ff0000;stop-opacity: 1" offset="100%"></stop></linearGradient><path d="M116.15 269.49L116.15 269.49L115.64 269.49L116.15 269.49Z" id="c4LWKe7kNl"></path><linearGradient id="gradienta88wS8Sps" gradientUnits="userSpaceOnUse" x1="115.89" y1="269.49" x2="115.89" y2="269.49"><stop style="stop-color: #00fcff;stop-opacity: 1" offset="0%"></stop><stop style="stop-color: #ff0000;stop-opacity: 1" offset="100%"></stop></linearGradient><path d="M56.25 93.75L37.5 56.25L18.75 93.75L37.5 112.5L56.25 93.75Z" id="c7zpNXBaAU"></path><linearGradient id="gradientdvbN98dp3" gradientUnits="userSpaceOnUse" x1="37.5" y1="56.25" x2="37.5" y2="112.5"><stop style="stop-color: #00c6ff;stop-opacity: 1" offset="0%"></stop><stop style="stop-color: #ff0000;stop-opacity: 1" offset="100%"></stop></linearGradient><linearGradient id="gradientc4UItIHow3" gradientUnits="userSpaceOnUse" x1="37.5" y1="56.25" x2="37.5" y2="112.5"><stop style="stop-color: #00fcff;stop-opacity: 1" offset="0%"></stop><stop style="stop-color: #ff0000;stop-opacity: 1" offset="100%"></stop></linearGradient><path d="M21.94 78.13L21.94 68.75L31.31 78.13L21.94 78.13Z" id="a4dI4SpZAt"></path><linearGradient id="gradientcZD3wKAt" gradientUnits="userSpaceOnUse" x1="26.63" y1="78.13" x2="26.63" y2="68.75"><stop style="stop-color: #00fcff;stop-opacity: 1" offset="0%"></stop><stop style="stop-color: #ff0000;stop-opacity: 1" offset="100%"></stop></linearGradient></defs><g><g><g><use xlink:href="#bcWfetqhF" opacity="1" fill="url(#gradientaiAUo4SHb)"></use></g><g><use xlink:href="#a4hlVwA3IJ" opacity="1" fill="url(#gradientadD1sYMdM)"></use></g><g><use xlink:href="#a2x4THoVsk" opacity="1" fill="url(#gradientd8a22UfQcl)"></use></g><g><use xlink:href="#a1SmKu7jeC" opacity="1" fill="url(#gradienta1xxNd5bnl)"></use></g><g><use xlink:href="#fyypVEtYm" opacity="1" fill="url(#gradiental3b5FzAy)"></use></g><g><use xlink:href="#b1OC8rzkDy" opacity="1" fill="url(#gradientgsxVBWbxk)"></use></g><g><use xlink:href="#f67ekvhMf" opacity="1" fill="url(#gradienta6oFBU6E)"></use></g><g><use xlink:href="#dBcFzjX64" opacity="1" fill="url(#gradientb2TZocTQRm)"></use></g><g><use xlink:href="#c1ikPmICda" opacity="1" fill="url(#gradienteRPoqrsAl)"></use></g><g><use xlink:href="#n58yw9dSEU" opacity="1" fill="url(#gradientb3yTGVO8D)"></use></g><g><use xlink:href="#b4wtP8AILl" opacity="1" fill="url(#gradientb3cZPvUqBk)"></use></g><g><use xlink:href="#awDbPEZjX" opacity="1" fill="url(#gradientd1t83OR498)"></use></g><g><use xlink:href="#aTTNSj7uq" opacity="1" fill="url(#gradienta3fxmqiiV)"></use></g><g><use xlink:href="#gbjJBEggT" opacity="1" fill="url(#gradientb5CuNAld5B)"></use></g><g><use xlink:href="#b59n1lgpOC" opacity="1" fill="url(#gradienta3SfW9pY6e)"></use></g><g><use xlink:href="#a81l8HylH" opacity="1" fill="url(#gradientf2o3RH65lg)"></use></g><g><use xlink:href="#cjLieGkfz" opacity="1" fill="url(#gradientf7NXmDTzT)"></use></g><g><use xlink:href="#aD1RHdYUn" opacity="1" fill="url(#gradientaMVdU31wi)"></use></g><g><use xlink:href="#awQGQnBbo" opacity="1" fill="url(#gradienta2yVf8jr07)"></use></g><g><use xlink:href="#cyiAQX7x7" opacity="1" fill="url(#gradientaGsdTD7ol)"></use></g><g><use xlink:href="#aWX6KVtd3" opacity="1" fill="url(#gradientbF5w2eXK)"></use></g><g><use xlink:href="#gAj6nN8nK" opacity="1" fill="url(#gradientb3r2euDObz)"></use></g><g><use xlink:href="#b56d6Rm4Wt" opacity="1" fill="url(#gradientdqTcxE83y)"></use></g><g><use xlink:href="#a2uQKtEqhR" opacity="1" fill="url(#gradientk1xgprWkNM)"></use></g><g><use xlink:href="#b4bKyI1tR" opacity="1" fill="url(#gradientfkXIoLRGD)"></use></g><g><use xlink:href="#euSReX6kr" opacity="1" fill="url(#gradientl1pxBBNup)"></use></g><g><use xlink:href="#b1EdLoqmz" opacity="1" fill="url(#gradientf2JEalBvGb)"></use></g><g><use xlink:href="#bajxkCEOJ" opacity="1" fill="url(#gradientgqNTJbV17)"></use></g><g><use xlink:href="#d1unfIYt8C" opacity="1" fill="url(#gradienta1I45TFQe4)"></use></g><g><use xlink:href="#cbpRSiEwm" opacity="1" fill="url(#gradientc1YnQBJbJA)"></use></g><g><use xlink:href="#a5ioEMe7A" opacity="1" fill="url(#gradientb2lza6hl5A)"></use></g><g><use xlink:href="#a4AHgSJzCX" opacity="1" fill="url(#gradienta1TwsFaH3n)"></use></g><g><use xlink:href="#aB1XAZdC2" opacity="1" fill="url(#gradientbYX2gB3by)"></use></g><g><use xlink:href="#aOd7WGvkm" opacity="1" fill="url(#gradienta5lAXHzgt)"></use></g><g><use xlink:href="#e1OVVgbSuH" opacity="1" fill="url(#gradienta1uezP0jcQ)"></use></g><g><use xlink:href="#j2dl62Omix" opacity="1" fill="url(#gradienta37tdJhzEG)"></use></g><g><use xlink:href="#c4LWKe7kNl" opacity="1" fill="url(#gradienta88wS8Sps)"></use></g><g><use xlink:href="#c7zpNXBaAU" opacity="1" fill="url(#gradientdvbN98dp3)"></use><use xlink:href="#c7zpNXBaAU" opacity="1" fill="url(#gradientc4UItIHow3)"></use></g><g><use xlink:href="#a4dI4SpZAt" opacity="1" fill="url(#gradientcZD3wKAt)"></use></g></g></g></svg>